<svg xmlns="http://www.w3.org/2000/svg" viewBox="0 0 64 64" width="64" height="64">
  <!-- Lotus Palace — chef face: puffy toque, brows, eyes, curly mustache -->
  <g>
    <!-- toque (puffy cloud) -->
    <g fill="#7A5DC7">
      <rect x="13" y="14" width="38" height="11" rx="4"/>
      <circle cx="14.5" cy="20" r="5.5"/>
      <circle cx="49.5" cy="20" r="5.5"/>
      <circle cx="21" cy="16" r="7.5"/>
      <circle cx="43" cy="16" r="7.5"/>
      <circle cx="32" cy="11.5" r="10"/>
    </g>
    <!-- band -->
    <rect x="18" y="24" width="28" height="8" rx="4" fill="#E89AAE"/>
    <!-- eyebrows -->
    <path d="M24 35.3 Q27 33.3 30 35.3" fill="none" stroke="#43325E" stroke-width="2.1" stroke-linecap="round"/>
    <path d="M34 35.3 Q37 33.3 40 35.3" fill="none" stroke="#43325E" stroke-width="2.1" stroke-linecap="round"/>
    <!-- eyes -->
    <circle cx="27" cy="38.3" r="1.5" fill="#43325E"/>
    <circle cx="37" cy="38.3" r="1.5" fill="#43325E"/>
    <!-- mustache -->
    <path fill="#43325E" d="M32 44 C30.6 45.3 28.6 46 26.2 46.2 C22.8 46.5 20.4 45.4 17.4 44 C15 42.9 13 42.6 11.5 41.8 C12.8 40.6 15.4 40.9 18.2 41.9 C21.2 43 23.8 43.7 26.4 43.4 C28.9 43.1 30.7 42.3 32 41 C33.3 42.3 35.1 43.1 37.6 43.4 C40.2 43.7 42.8 43 45.8 41.9 C48.6 40.9 51.2 40.6 52.5 41.8 C51 42.6 49 42.9 46.6 44 C43.6 45.4 41.2 46.5 37.8 46.2 C35.4 46 33.4 45.3 32 44 Z"/>
  </g>
</svg>
